<svg version="1.1" id="Layer_1" xmlns="http://www.w3.org/2000/svg" xmlns:xlink="http://www.w3.org/1999/xlink" x="0px" y="0px"
	 width="100%" viewBox="0 0 512 512" enable-background="new 0 0 512 512" xml:space="preserve">
<path fill="#000000" opacity="1.000000" stroke="none"
	d="
M242.000000,513.000000
	C161.352890,513.000000 81.205780,513.000000 1.029336,513.000000
	C1.029336,342.394531 1.029336,171.789062 1.029336,1.091791
	C171.563797,1.091791 342.127655,1.091791 512.845764,1.091791
	C512.845764,171.666565 512.845764,342.333252 512.845764,513.000000
	C422.789032,513.000000 332.644501,513.000000 242.000000,513.000000
M188.500000,417.000000
	C200.596298,417.000000 212.692612,417.000000 224.686768,417.000000
	C224.686768,400.661835 224.686768,384.925446 224.686768,368.771118
	C197.970963,368.771118 171.566315,368.771118 145.337585,368.771118
	C145.337585,293.946289 145.337585,219.545166 145.337585,144.722244
	C172.078323,144.722244 198.482925,144.722244 224.636200,144.722244
	C224.636200,128.559570 224.636200,112.821785 224.636200,97.000000
	C197.109787,97.000000 169.946640,97.085335 142.784592,96.951294
	C133.901901,96.907455 125.734741,99.146172 118.589012,104.184372
	C104.928299,113.816086 96.884827,126.490944 96.925606,143.945908
	C97.100052,218.610123 97.089279,293.275177 96.903030,367.939331
	C96.875320,379.045868 99.097511,389.127533 105.983177,397.908813
	C114.891983,409.270142 126.095757,416.739899 141.001968,416.950989
	C156.498444,417.170441 172.000427,416.999969 188.500000,417.000000
M314.469971,201.029755
	C327.557648,214.127960 340.645325,227.226151 354.659119,241.251190
	C302.921692,241.251190 252.560776,241.251190 202.239624,241.251190
	C202.239624,252.006348 202.239624,262.273651 202.239624,273.071747
	C252.795776,273.071747 303.115540,273.071747 353.435333,273.071747
	C352.716949,275.164825 351.395416,276.134796 350.247864,277.279266
	C335.268982,292.217865 320.327179,307.193665 305.338867,322.122772
	C303.422607,324.031433 301.856628,325.530731 304.606354,328.199951
	C311.629333,335.017334 318.427185,342.066650 324.446960,348.146362
	C355.297180,317.297668 385.867035,286.729340 416.234375,256.363464
	C386.223419,226.358932 355.741211,195.883240 325.085602,165.234192
	C318.911499,171.466934 312.583038,177.855576 306.254486,184.244156
	C305.785767,184.717331 305.358978,185.243515 304.840607,185.654037
	C302.453583,187.544434 302.518860,189.260742 304.785736,191.344925
	C307.970184,194.272675 310.919861,197.455780 314.469971,201.029755
z"/>
<path fill="#E2E2E2" opacity="1.000000" stroke="none"
	d="
M188.000000,417.000000
	C172.000427,416.999969 156.498444,417.170441 141.001968,416.950989
	C126.095757,416.739899 114.891983,409.270142 105.983177,397.908813
	C99.097511,389.127533 96.875320,379.045868 96.903030,367.939331
	C97.089279,293.275177 97.100052,218.610123 96.925606,143.945908
	C96.884827,126.490944 104.928299,113.816086 118.589012,104.184372
	C125.734741,99.146172 133.901901,96.907455 142.784592,96.951294
	C169.946640,97.085335 197.109787,97.000000 224.636200,97.000000
	C224.636200,112.821785 224.636200,128.559570 224.636200,144.722244
	C198.482925,144.722244 172.078323,144.722244 145.337585,144.722244
	C145.337585,219.545166 145.337585,293.946289 145.337585,368.771118
	C171.566315,368.771118 197.970963,368.771118 224.686768,368.771118
	C224.686768,384.925446 224.686768,400.661835 224.686768,417.000000
	C212.692612,417.000000 200.596298,417.000000 188.000000,417.000000
z"/>
<path fill="#9B9B9B" opacity="1.000000" stroke="none"
	d="
M314.219971,200.779724
	C310.919861,197.455780 307.970184,194.272675 304.785736,191.344925
	C302.518860,189.260742 302.453583,187.544434 304.840607,185.654037
	C305.358978,185.243515 305.785767,184.717331 306.254486,184.244156
	C312.583038,177.855576 318.911499,171.466934 325.085602,165.234192
	C355.741211,195.883240 386.223419,226.358932 416.234375,256.363464
	C385.867035,286.729340 355.297180,317.297668 324.446960,348.146362
	C318.427185,342.066650 311.629333,335.017334 304.606354,328.199951
	C301.856628,325.530731 303.422607,324.031433 305.338867,322.122772
	C320.327179,307.193665 335.268982,292.217865 350.247864,277.279266
	C351.395416,276.134796 352.716949,275.164825 353.435333,273.071747
	C303.115540,273.071747 252.795776,273.071747 202.239624,273.071747
	C202.239624,262.273651 202.239624,252.006348 202.239624,241.251190
	C252.560776,241.251190 302.921692,241.251190 354.659119,241.251190
	C340.645325,227.226151 327.557648,214.127960 314.219971,200.779724
z"/>
</svg>